PathFileType	4	(X/Y/Z)	pose2sim_150-449.trc
DataRate	CameraRate	NumFrames	NumMarkers	Units	OrigDataRate	OrigDataStartFrame	OrigNumFrames
50	50	6	22	m	50	412	300
Frame#	Time	Hip			RHip			RKnee			RAnkle			RBigToe			RSmallToe			RHeel			LHip			LKnee			LAnkle			LBigToe			LSmallToe			LHeel			Neck			Head			Nose			RShoulder			RElbow			RWrist			LShoulder			LElbow			LWrist			
		X1	Y1	Z1	X2	Y2	Z2	X3	Y3	Z3	X4	Y4	Z4	X5	Y5	Z5	X6	Y6	Z6	X7	Y7	Z7	X8	Y8	Z8	X9	Y9	Z9	X10	Y10	Z10	X11	Y11	Z11	X12	Y12	Z12	X13	Y13	Z13	X14	Y14	Z14	X15	Y15	Z15	X16	Y16	Z16	X17	Y17	Z17	X18	Y18	Z18	X19	Y19	Z19	X20	Y20	Z20	X21	Y21	Z21	X22	Y22	Z22	
412	8.24	0.1344306246808728	0.9779924446589745	-0.042663167736220295	0.03422048222391846	0.9598287248290936	-0.03231260394611698	0.014913652704409277	0.5185331091054124	-0.060180639217430006	0.0006657010866905154	0.09188061930708899	-0.0964831798964179	0.0045901055033986	0.035375737330218225	0.0816378174365916	-0.043980689572337625	0.03820890463784979	0.04937006221612063	0.01035570843461489	0.04750047577107586	-0.12802236114881352	0.2410104993264238	0.9590507016537835	-0.05129908010177656	0.2420619263570904	0.5184176715615331	-0.09597284718285123	0.24310158780412006	0.0865226779445695	-0.11930108380014307	0.27413898885510357	0.03570707150210179	0.06718658524773033	0.3166823308781675	0.03707766856964488	0.005722857787142511	0.23243735928877157	0.04346904153485507	-0.1520335828890524	0.13950819926175057	1.5770054815496168	-0.08007854128101388	0.1345183543974744	1.8276879689298524	-0.049835932353755254	0.12484254408288185	1.699398900266155	0.05522823390367298	-0.01638861906053529	1.4700713470579565	-0.06616797115673714	-0.08060594838804368	1.2246522144758734	0.03278254018026823	-0.10772655303983236	1.283609818746888	0.3186935546288284	0.3059075904999386	1.4735559450844493	-0.10977171395620078	0.3716950359786491	1.2276580119336464	-0.005404417163057023	0.47599888367349535	1.2685520102474386	0.24215123702928315
413	8.26	0.13456064266430942	0.9809093576286927	-0.042210934635573356	0.03424114089544061	0.9631118060706665	-0.029518057904852603	0.014888274781716837	0.5194635599850873	-0.05815229896506718	0.0005785590393791963	0.0924462833985818	-0.09216031670922545	0.009456843830544355	0.03457518457818344	0.08582857723105365	-0.04356989305441056	0.038931083970206073	0.05373700469221189	0.008402050911931146	0.04819015974978529	-0.1310910394261447	0.23991459091033182	0.9593505693880077	-0.04553767904685299	0.24054761929038382	0.5209946507240389	-0.09833641863289422	0.24580651675000095	0.09014723296913277	-0.11871355797009274	0.2731420159780305	0.03375628237989224	0.07070008716101475	0.3160687366527874	0.03633872810844437	0.010728465540803058	0.23369105109461094	0.045370132453340865	-0.15197509109430454	0.1408567007709542	1.5776234877226245	-0.08091484125376401	0.1329626903735259	1.8285364648034133	-0.050054194887786486	0.13079232000169672	1.7003238071673734	0.08241976376560783	-0.01393029306970176	1.4691703776098362	-0.06915644071927915	-0.07752159186314395	1.217518738652956	0.05091474432288101	-0.10708149557225825	1.3027577900867513	0.30487779182392355	0.3059076511129087	1.4740586835486524	-0.1076077206300315	0.3723013083995323	1.2285169451107125	0.005906028735567025	0.4639442325737844	1.2921063976459515	0.23841624340140524
414	8.28	0.13498222374357444	0.9846468627920405	-0.036594611834025	0.03366936719862364	0.9643473620316222	-0.025287652527801796	0.0164299869139306	0.5211854593333107	-0.06477180297581774	0.003328008668647538	0.09384548774048836	-0.09380794622195414	0.004357228456288237	0.04216454026144461	0.10189106215236177	-0.041811507664108676	0.04025605072708974	0.056469833200286194	0.012422370782660286	0.048048835594076834	-0.12266064510300921	0.23866129991088522	0.9618029321266174	-0.03746270594082832	0.2427923662720677	0.5165063915684268	-0.09765818036164772	0.24561488446927485	0.08847212043398552	-0.11373645955948312	0.27580974967141597	0.0389595286460083	0.07926560714509809	0.31270709489952436	0.03605591699094941	0.02422606511300953	0.23290720006184867	0.04569231133181692	-0.1387975816756373	0.14265811062545677	1.5771557762935384	-0.08052012753501461	0.13717282907548986	1.8237609467320521	-0.04743820795117731	0.13749256568654658	1.6920063005151227	0.08189878636125654	-0.014228487609902266	1.4723188238674751	-0.07519529833558125	-0.07602160226130299	1.2210659996337294	0.05666638645378813	-0.09395899505515713	1.3483415300266723	0.3285457589118836	0.30581524556586154	1.4742390841872532	-0.10890841368476459	0.37910851631651094	1.2288717056592262	0.016613061355831557	0.45232361113381797	1.3116065200364644	0.26031006315903876
415	8.3	0.13903167159767219	0.9784872641123463	-0.044038198924516964	0.03611974076426688	0.9590408506243323	-0.03098655953969225	0.016701518430898416	0.5166272824722848	-0.05937604246007317	0.0013688837186438363	0.09052635292294199	-0.08767182366335774	0.011004490940057609	0.03513746476029165	0.09092948694634598	-0.04452222184816959	0.036536460647935434	0.04681065020773621	0.009411748304673796	0.04812825286933969	-0.12605928495264923	0.2419396074399183	0.9583570739542713	-0.05503607995542636	0.240933002979234	0.5196469933336743	-0.09699631784200559	0.2463510253251526	0.08848892175324106	-0.1155993674512238	0.2750484871530928	0.03341271525122268	0.07222343488124651	0.31728548051886185	0.035635020474682685	0.00887696085121451	0.23163808459741098	0.04292846748444913	-0.15083293003824283	0.14347494607505124	1.5780145695287695	-0.08323764994229228	0.1328632522563807	1.8286087159615962	-0.04719314300485395	0.1315807127292898	1.699792946584953	0.0801941580016408	-0.01228513381468502	1.47140670013747	-0.07593643739733981	-0.07472617045220079	1.2227664421501594	0.05667037932342002	-0.09050581008153347	1.3446208057570572	0.30911400422859	0.3076745515613149	1.473612347769644	-0.10249587797051596	0.37562482600868924	1.2339501671060717	0.022354810566314807	0.45071171051547615	1.3437292656044522	0.26626844041018294
416	8.32	0.1369999289945931	0.9786200311570735	-0.03851552841138815	0.0359154934746746	0.9603776463175723	-0.032930466601904296	0.016487743318138612	0.517950400811614	-0.06218832218585563	0.0007765145097077932	0.09201723341582865	-0.09107426366947732	0.011235923722677909	0.03876018300157286	0.08750254278091897	-0.04312661697434425	0.038597173132561204	0.0518656294347402	0.007370977175825421	0.047414765670746616	-0.12647851774981975	0.24304415133231302	0.9592516730551035	-0.049406015857667726	0.24239126606214628	0.5206540380185297	-0.09747199771031982	0.2469152516261306	0.08794400861407592	-0.11647608666326342	0.2734584273576302	0.035843272264184906	0.0676502112686989	0.31789166296529103	0.036862372375770745	0.011415123555272282	0.2330653267968146	0.042406405404858495	-0.15381790753417568	0.14415469607302836	1.5783553473203906	-0.08061991606841906	0.1377761507586299	1.8278681436378839	-0.04810464003586682	0.1376540285540228	1.6966809288501514	0.07857843895396237	-0.012178014408723516	1.4697737435318396	-0.06686352062688294	-0.07373357799294876	1.2235416222303173	0.06489503678959678	-0.08082344941330177	1.363813776875916	0.3040425695336511	0.3081079193074909	1.4734010221439	-0.10307335529871055	0.37594385963007865	1.2325080790811673	0.03853945170338207	0.44199790552749074	1.3595507116587757	0.26421738726297667
417	8.34	0.13691739279879833	0.9803161157889541	-0.041395662478941074	0.03366679048827872	0.9622972520042954	-0.029944198951865283	0.015227016208969539	0.519231219337317	-0.059166158332417014	0.0008007383155209382	0.09068596611782748	-0.09216182786825806	0.012647404145638513	0.03519498825107718	0.09117324056595022	-0.04324908793697936	0.03770842880787446	0.0498166266284167	0.008979590264232232	0.04494203955687036	-0.12853937143364125	0.23890090143842677	0.9610079459070868	-0.04956597365212333	0.2410886178769888	0.5191934748368601	-0.09241299185830082	0.24420277351036035	0.08825964318685316	-0.11171697126113968	0.2745056573265227	0.03354613634294056	0.07562881808627304	0.31758072249602437	0.03765572511427698	0.0187068785258008	0.2319948201981513	0.04268237165274212	-0.14665488305104407	0.14296876478317425	1.5781931807072138	-0.08003806282533371	0.1362216520630157	1.8262555265511735	-0.053127031673357014	0.13654045711532886	1.6974221185209393	0.07942800655598901	-0.01465316093811062	1.4712490575353294	-0.06808663711970744	-0.07419764491132615	1.2247783472398794	0.07259118607497633	-0.07488876282376433	1.386023551194926	0.3112487446896947	0.3052806785754112	1.4746356028765808	-0.1007300625670057	0.3774123853362347	1.2361233815013675	0.04516746323274301	0.4393009270780702	1.3809775173793803	0.24944424256370712
